<svg width="24" height="24" viewBox="0 0 24 24" fill="none" xmlns="http://www.w3.org/2000/svg">
<path d="M12 1.99634C16.0499 1.99634 19.3567 5.19108 19.4958 9.24539L19.5 9.49634V13.5933L20.88 16.7493C20.949 16.9072 20.9847 17.0777 20.9847 17.2501C20.9847 17.9405 20.425 18.5001 19.7347 18.5001L15 18.5016C15 20.1585 13.6568 21.5016 12 21.5016C10.4023 21.5016 9.09633 20.2527 9.00508 18.6779L8.99954 18.4993L4.27485 18.5001C4.10351 18.5001 3.93401 18.4649 3.77685 18.3966C3.14365 18.1216 2.8533 17.3853 3.12834 16.7521L4.49999 13.5943V9.49623C4.50059 5.34144 7.85208 1.99634 12 1.99634ZM13.4995 18.4993L10.5 18.5016C10.5 19.33 11.1716 20.0016 12 20.0016C12.7797 20.0016 13.4204 19.4067 13.4931 18.6461L13.4995 18.4993ZM12 3.49634C8.67983 3.49634 6.00047 6.17059 5.99999 9.49634V13.906L4.65601 17.0001H19.3525L18 13.9069L18.0001 9.50919L17.9964 9.28399C17.8853 6.05052 15.2416 3.49634 12 3.49634Z" fill="#242424"/>
</svg>
