<svg width="18" height="19" viewBox="0 0 18 19" fill="none" xmlns="http://www.w3.org/2000/svg">
<path d="M9 4.5C9.41421 4.5 9.75 4.83579 9.75 5.25V8.75H13.25C13.6642 8.75 14 9.08579 14 9.5C14 9.91421 13.6642 10.25 13.25 10.25H9.75V13.75C9.75 14.1642 9.41421 14.5 9 14.5C8.58579 14.5 8.25 14.1642 8.25 13.75V10.25H4.75C4.33579 10.25 4 9.91421 4 9.5C4 9.08579 4.33579 8.75 4.75 8.75H8.25V5.25C8.25 4.83579 8.58579 4.5 9 4.5ZM0 3.75C0 1.95507 1.45507 0.5 3.25 0.5H14.75C16.5449 0.5 18 1.95507 18 3.75V15.25C18 17.0449 16.5449 18.5 14.75 18.5H3.25C1.45507 18.5 0 17.0449 0 15.25V3.75ZM3.25 2C2.2835 2 1.5 2.7835 1.5 3.75V15.25C1.5 16.2165 2.2835 17 3.25 17H14.75C15.7165 17 16.5 16.2165 16.5 15.25V3.75C16.5 2.7835 15.7165 2 14.75 2H3.25Z" fill="#616161"/>
</svg>
