<svg width="24" height="24" viewBox="0 0 24 24" fill="none" xmlns="http://www.w3.org/2000/svg">
<path d="M17.753 13.9999C18.9957 13.9999 20.003 15.0073 20.003 16.2499V17.155C20.003 18.2487 19.5256 19.2879 18.6958 20.0003C17.1303 21.3442 14.89 22.0011 12 22.0011C9.1105 22.0011 6.87168 21.3445 5.30882 20.0008C4.48019 19.2884 4.00354 18.25 4.00354 17.1572V16.2499C4.00354 15.0073 5.0109 13.9999 6.25354 13.9999H17.753ZM17.753 15.4999H6.25354C5.83933 15.4999 5.50354 15.8357 5.50354 16.2499V17.1572C5.50354 17.8129 5.78953 18.4359 6.28671 18.8634C7.54479 19.945 9.4408 20.5011 12 20.5011C14.56 20.5011 16.4578 19.9447 17.7187 18.8622C18.2166 18.4347 18.503 17.8112 18.503 17.155V16.2499C18.503 15.8357 18.1673 15.4999 17.753 15.4999ZM11.8986 2.00733L12.0003 2.00049C12.38 2.00049 12.6938 2.28264 12.7435 2.64872L12.7503 2.75049L12.7495 3.49949L16.25 3.49999C17.4926 3.49999 18.5 4.50735 18.5 5.74999V10.2546C18.5 11.4972 17.4926 12.5046 16.25 12.5046H7.75C6.50736 12.5046 5.5 11.4972 5.5 10.2546V5.74999C5.5 4.50735 6.50736 3.49999 7.75 3.49999L11.2495 3.49949L11.2503 2.75049C11.2503 2.37079 11.5325 2.057 11.8986 2.00733L12.0003 2.00049L11.8986 2.00733ZM16.25 4.99999H7.75C7.33578 4.99999 7 5.33578 7 5.74999V10.2546C7 10.6688 7.33578 11.0046 7.75 11.0046H16.25C16.6642 11.0046 17 10.6688 17 10.2546V5.74999C17 5.33578 16.6642 4.99999 16.25 4.99999ZM9.74929 6.49999C10.4393 6.49999 10.9986 7.05932 10.9986 7.74928C10.9986 8.43925 10.4393 8.99857 9.74929 8.99857C9.05932 8.99857 8.5 8.43925 8.5 7.74928C8.5 7.05932 9.05932 6.49999 9.74929 6.49999ZM14.242 6.49999C14.932 6.49999 15.4913 7.05932 15.4913 7.74928C15.4913 8.43925 14.932 8.99857 14.242 8.99857C13.5521 8.99857 12.9927 8.43925 12.9927 7.74928C12.9927 7.05932 13.5521 6.49999 14.242 6.49999Z" fill="#5B5FC7"/>
</svg>
