<svg width="24" height="25" viewBox="0 0 24 25" fill="none" xmlns="http://www.w3.org/2000/svg">
<path d="M7.05658 2.91795L8.22358 2.56619C9.54608 2.16755 10.9591 2.81179 11.5254 4.07161L12.4271 6.07733C12.9098 7.15117 12.6554 8.41317 11.7944 9.21612L10.3001 10.6096C10.2564 10.6503 10.2288 10.7053 10.2221 10.7647C10.1778 11.1618 10.447 11.9352 11.0673 13.0095C11.5183 13.7908 11.9266 14.3387 12.2741 14.6468C12.5162 14.8615 12.6494 14.9079 12.7062 14.891L14.7165 14.2764C15.8421 13.9323 17.0619 14.3426 17.7506 15.2971L19.0313 17.0721C19.8374 18.1893 19.6925 19.7306 18.6922 20.6779L17.8058 21.5173C16.8494 22.4231 15.4879 22.7606 14.2191 22.4065C11.465 21.6378 8.99572 19.3137 6.78384 15.4826C4.56889 11.6462 3.7917 8.34173 4.50815 5.56994C4.83602 4.30146 5.80215 3.29607 7.05658 2.91795ZM7.48948 4.35413C6.73682 4.581 6.15715 5.18423 5.96043 5.94532C5.35778 8.27684 6.04663 11.2057 8.08288 14.7326C10.1164 18.2548 12.3054 20.315 14.6224 20.9617C15.3836 21.1742 16.2006 20.9717 16.7744 20.4282L17.6608 19.5888C18.1154 19.1582 18.1813 18.4576 17.8149 17.9498L16.5342 16.1748C16.2211 15.741 15.6667 15.5544 15.155 15.7109L13.1397 16.327C11.97 16.6757 10.9083 15.7342 9.76823 13.7595C8.99993 12.4288 8.64183 11.4001 8.7314 10.5982C8.7778 10.1827 8.97137 9.79763 9.27709 9.51254L10.7714 8.11909C11.1628 7.75411 11.2784 7.18047 11.059 6.69237L10.1573 4.68665C9.89989 4.114 9.25762 3.82116 8.65648 4.00236L7.48948 4.35413Z" fill="#616161"/>
</svg>
