<svg width="16" height="21" viewBox="0 0 16 21" fill="none" xmlns="http://www.w3.org/2000/svg">
<path d="M2 0.5C0.89543 0.5 0 1.39543 0 2.5V18.5C0 19.6046 0.895431 20.5 2 20.5H14C15.1046 20.5 16 19.6046 16 18.5V8.32777C16 7.79733 15.7893 7.28863 15.4142 6.91355L9.58645 1.08579C9.21137 0.710714 8.70267 0.5 8.17223 0.5H2ZM1.5 2.5C1.5 2.22386 1.72386 2 2 2H8V6.5C8 7.60457 8.89543 8.5 10 8.5H14.5V18.5C14.5 18.7761 14.2761 19 14 19H2C1.72386 19 1.5 18.7761 1.5 18.5V2.5ZM13.3793 7H10C9.72386 7 9.5 6.77614 9.5 6.5V3.12066L13.3793 7Z" fill="#616161"/>
</svg>
