<svg width="13" height="4" viewBox="0 0 13 4" fill="none" xmlns="http://www.w3.org/2000/svg">
<path d="M3 2C3 2.69036 2.44036 3.25 1.75 3.25C1.05964 3.25 0.5 2.69036 0.5 2C0.5 1.30964 1.05964 0.75 1.75 0.75C2.44036 0.75 3 1.30964 3 2ZM8 2C8 2.69036 7.44036 3.25 6.75 3.25C6.05964 3.25 5.5 2.69036 5.5 2C5.5 1.30964 6.05964 0.75 6.75 0.75C7.44036 0.75 8 1.30964 8 2ZM11.75 3.25C12.4404 3.25 13 2.69036 13 2C13 1.30964 12.4404 0.75 11.75 0.75C11.0596 0.75 10.5 1.30964 10.5 2C10.5 2.69036 11.0596 3.25 11.75 3.25Z" fill="#424242"/>
</svg>
